<svg width="24" height="24" viewBox="0 0 24 24" fill="none" xmlns="http://www.w3.org/2000/svg">
<g clip-path="url(#clip0_2001_35)">
<path d="M4.40625 18.0938C5.53125 17.3021 6.73438 16.7135 8.01562 16.3281C9.29688 15.9427 10.625 15.75 12 15.75C13.375 15.75 14.7031 15.9427 15.9844 16.3281C17.2656 16.7135 18.4688 17.3021 19.5938 18.0938C20.3229 17.2396 20.8646 16.2917 21.2188 15.25C21.5729 14.2083 21.75 13.125 21.75 12C21.75 9.29854 20.7997 6.99812 18.8991 5.09875C16.9984 3.19958 14.6964 2.25 11.9928 2.25C9.28927 2.25 6.98958 3.19958 5.09375 5.09875C3.19792 6.99812 2.25 9.29854 2.25 12C2.25 13.125 2.42708 14.2083 2.78125 15.25C3.13542 16.2917 3.67708 17.2396 4.40625 18.0938ZM12 14.25C10.75 14.25 9.6875 13.8125 8.8125 12.9375C7.9375 12.0625 7.5 11 7.5 9.75C7.5 8.5 7.9375 7.4375 8.8125 6.5625C9.6875 5.6875 10.75 5.25 12 5.25C13.25 5.25 14.3125 5.6875 15.1875 6.5625C16.0625 7.4375 16.5 8.5 16.5 9.75C16.5 11 16.0625 12.0625 15.1875 12.9375C14.3125 13.8125 13.25 14.25 12 14.25ZM12.0087 24C10.3571 24 8.80208 23.6875 7.34375 23.0625C5.88542 22.4375 4.60938 21.5781 3.51562 20.4844C2.42188 19.3906 1.5625 18.115 0.9375 16.6575C0.3125 15.2 0 13.6427 0 11.9856C0 10.3285 0.3125 8.77604 0.9375 7.32812C1.5625 5.88021 2.42188 4.60938 3.51562 3.51562C4.60938 2.42188 5.885 1.5625 7.3425 0.9375C8.8 0.3125 10.3573 0 12.0144 0C13.6715 0 15.224 0.3125 16.6719 0.9375C18.1198 1.5625 19.3906 2.42188 20.4844 3.51562C21.5781 4.60938 22.4375 5.8825 23.0625 7.335C23.6875 8.78771 24 10.3398 24 11.9913C24 13.6429 23.6875 15.1979 23.0625 16.6562C22.4375 18.1146 21.5781 19.3906 20.4844 20.4844C19.3906 21.5781 18.1175 22.4375 16.665 23.0625C15.2123 23.6875 13.6602 24 12.0087 24ZM12 21.75C13.0833 21.75 14.125 21.5781 15.125 21.2344C16.125 20.8906 17.0625 20.3854 17.9375 19.7188C17.0417 19.1562 16.0938 18.7292 15.0938 18.4375C14.0938 18.1458 13.0625 18 12 18C10.9375 18 9.90104 18.1406 8.89062 18.4219C7.88021 18.7031 6.9375 19.1354 6.0625 19.7188C6.9375 20.3854 7.875 20.8906 8.875 21.2344C9.875 21.5781 10.9167 21.75 12 21.75ZM12 12C12.625 12 13.1562 11.7812 13.5938 11.3438C14.0312 10.9062 14.25 10.375 14.25 9.75C14.25 9.125 14.0312 8.59375 13.5938 8.15625C13.1562 7.71875 12.625 7.5 12 7.5C11.375 7.5 10.8438 7.71875 10.4062 8.15625C9.96875 8.59375 9.75 9.125 9.75 9.75C9.75 10.375 9.96875 10.9062 10.4062 11.3438C10.8438 11.7812 11.375 12 12 12Z" fill="#888888"/>
</g>
<defs>
<clipPath id="clip0_2001_35">
<rect width="24" height="24" fill="white"/>
</clipPath>
</defs>
</svg>
